Coordinates
version=1
nRows=24
nColumns=38
inDegrees=no

Units are S.I. units (second, meters, Newtons, ...)
If the header above contains a line with 'inDegrees', this indicates whether rotational values are in degrees (yes) or radians (no).

endheader
time	pelvis_tilt	pelvis_list	pelvis_rotation	pelvis_tx	pelvis_ty	pelvis_tz	hip_flexion_r	hip_adduction_r	hip_rotation_r	knee_angle_r	ankle_angle_r	subtalar_angle_r	mtp_angle_r	hip_flexion_l	hip_adduction_l	hip_rotation_l	knee_angle_l	ankle_angle_l	subtalar_angle_l	mtp_angle_l	lumbar_extension	lumbar_bending	lumbar_rotation	arm_flex_r	arm_add_r	arm_rot_r	elbow_flex_r	pro_sup_r	wrist_flex_r	wrist_dev_r	arm_flex_l	arm_add_l	arm_rot_l	elbow_flex_l	pro_sup_l	wrist_flex_l	wrist_dev_l
9.82	-2.621	1.31558	-1.87775	0.72081	1.27692	0.958132	-0.15976	-0.0720221	-0.472839	0.316929	0.0328115	0	0	-0.028702	-0.47807	-0.299103	0.37605	-0.578956	0	0	-0.401081	0.0586603	-0.00633637	0.432074	-0.58369	0.375004	1.93653	1.5708	0	0	0.386245	-0.324972	0.0408466	1.39216	1.5708	0	0
9.83	-2.63004	1.32084	-1.86572	0.720342	1.2746	0.958029	-0.15612	-0.0659971	-0.47323	0.309273	0.0267949	0	0	-0.0360428	-0.48458	-0.253264	0.375139	-0.557398	0	0	-0.396766	0.0621797	-0.00643303	0.428681	-0.585045	0.372922	1.93735	1.5708	0	0	0.387241	-0.325456	0.045807	1.39182	1.5708	0	0
9.84	-2.63271	1.32292	-1.86044	0.719852	1.27212	0.958319	-0.155063	-0.0632398	-0.474386	0.302028	0.0206872	0	0	-0.0386887	-0.487093	-0.235406	0.38366	-0.541178	0	0	-0.395455	0.0628073	-0.00590928	0.424552	-0.58674	0.369104	1.93824	1.5708	0	0	0.389766	-0.32348	0.0495321	1.39028	1.5708	0	0
9.85	-2.63568	1.32558	-1.85481	0.719383	1.26958	0.958511	-0.153116	-0.0602948	-0.475475	0.295168	0.0147159	0	0	-0.0399617	-0.489291	-0.219391	0.393456	-0.52508	0	0	-0.393637	0.0634788	-0.00505275	0.420167	-0.58852	0.364546	1.93887	1.5708	0	0	0.392586	-0.320279	0.052267	1.38842	1.5708	0	0
9.86	-2.63927	1.32861	-1.84868	0.71891	1.26702	0.958626	-0.150576	-0.057189	-0.476176	0.288629	0.00902911	0	0	-0.0399952	-0.491282	-0.205944	0.405043	-0.510492	0	0	-0.391228	0.0643112	-0.00366219	0.415195	-0.590554	0.359066	1.93938	1.5708	0	0	0.396268	-0.318303	0.0580137	1.38589	1.5708	0	0
9.87	-2.64352	1.33203	-1.84209	0.718416	1.26442	0.958652	-0.147393	-0.0540946	-0.476704	0.282542	0.00369369	0	0	-0.0389314	-0.49308	-0.195259	0.418425	-0.497735	0	0	-0.388341	0.0652845	-0.00203418	0.40992	-0.592672	0.352978	1.9399	1.5708	0	0	0.400521	-0.317193	0.0656533	1.38307	1.5708	0	0
9.88	-2.64815	1.33531	-1.83548	0.717872	1.26181	0.958656	-0.144224	-0.0513783	-0.477117	0.276695	-0.00129942	0	0	-0.0379061	-0.494277	-0.187943	0.433061	-0.485902	0	0	-0.385496	0.0661422	-0.000476095	0.404588	-0.594632	0.346516	1.94051	1.5708	0	0	0.404168	-0.314323	0.0705643	1.38051	1.5708	0	0
9.89	-2.65422	1.33858	-1.82749	0.717251	1.25916	0.958617	-0.141089	-0.048673	-0.477703	0.271093	-0.00631289	0	0	-0.0359943	-0.495185	-0.183062	0.45018	-0.473364	0	0	-0.382662	0.0673808	0.00084077	0.399609	-0.596679	0.34002	1.94129	1.5708	0	0	0.40753	-0.310561	0.0739476	1.37804	1.5708	0	0
9.9	-2.66241	1.34143	-1.8173	0.71657	1.25647	0.958536	-0.138578	-0.0457502	-0.478728	0.265428	-0.0113199	0	0	-0.0337209	-0.496016	-0.180526	0.469637	-0.457456	0	0	-0.380413	0.069025	0.0014754	0.395549	-0.598855	0.33432	1.94232	1.5708	0	0	0.409988	-0.305456	0.0741462	1.37678	1.5708	0	0
9.91	-2.67121	1.34423	-1.80635	0.715821	1.25377	0.958421	-0.136361	-0.0427031	-0.479953	0.259363	-0.016618	0	0	-0.0307075	-0.496409	-0.179543	0.491553	-0.434064	0	0	-0.377922	0.0708847	0.00195724	0.39143	-0.60106	0.328608	1.94311	1.5708	0	0	0.41402	-0.306373	0.0836849	1.37518	1.5708	0	0
9.92	-2.67683	1.3464	-1.79887	0.715034	1.251	0.958328	-0.134126	-0.0411492	-0.481392	0.254392	-0.0211623	0	0	-0.027976	-0.494635	-0.179147	0.515291	-0.398559	0	0	-0.376196	0.071671	0.00145183	0.388382	-0.602571	0.323795	1.94303	1.5708	0	0	0.415629	-0.3035	0.0851468	1.37521	1.5708	0	0
9.93	-2.68148	1.34865	-1.79267	0.714188	1.24819	0.958206	-0.131621	-0.0400543	-0.482521	0.24982	-0.0247181	0	0	-0.0247404	-0.491841	-0.179686	0.541662	-0.347471	0	0	-0.37429	0.0721924	0.000823159	0.385541	-0.603922	0.319353	1.94235	1.5708	0	0	0.416712	-0.301539	0.0873177	1.37541	1.5708	0	0
9.94	-2.68405	1.35	-1.78861	0.713293	1.24532	0.958159	-0.130429	-0.0393788	-0.482754	0.244204	-0.0281891	0	0	-0.0222373	-0.487435	-0.181497	0.569417	-0.285365	0	0	-0.373307	0.0719694	-0.000291114	0.3831	-0.604992	0.315244	1.9414	1.5708	0	0	0.417441	-0.299759	0.0888889	1.37607	1.5708	0	0
9.95	-2.68522	1.35132	-1.78574	0.712324	1.24238	0.958102	-0.129611	-0.0387628	-0.482093	0.23728	-0.0322867	0	0	-0.0194872	-0.481748	-0.183726	0.597548	-0.22048	0	0	-0.372285	0.0714876	-0.00187184	0.38073	-0.60596	0.311281	1.94047	1.5708	0	0	0.418499	-0.299555	0.0926332	1.37664	1.5708	0	0
9.96	-2.68555	1.35159	-1.7834	0.711374	1.23934	0.958107	-0.12995	-0.0384391	-0.481811	0.229625	-0.0381399	0	0	-0.0176917	-0.474834	-0.186782	0.625219	-0.160679	0	0	-0.372251	0.0703028	-0.00351903	0.377821	-0.606941	0.306717	1.93975	1.5708	0	0	0.420098	-0.297556	0.0943812	1.37664	1.5708	0	0
9.97	-2.68373	1.34963	-1.78457	0.710413	1.23647	0.958307	-0.132674	-0.0395088	-0.481457	0.221886	-0.0439262	0	0	-0.011451	-0.469353	-0.227574	0.664517	-0.115538	0	0	-0.374189	0.0676955	-0.00446567	0.375062	-0.607894	0.302336	1.9392	1.5708	0	0	0.420799	-0.293203	0.0921795	1.37721	1.5708	0	0
9.98	-2.68418	1.34954	-1.78223	0.709477	1.23337	0.958302	-0.132833	-0.0394227	-0.481758	0.215347	-0.0486585	0	0	-0.011369	-0.460927	-0.232359	0.689437	-0.0790071	0	0	-0.37452	0.0661383	-0.00606585	0.372303	-0.608374	0.297496	1.93852	1.5708	0	0	0.423723	-0.293277	0.097242	1.37733	1.5708	0	0
9.99	-2.68452	1.34947	-1.77978	0.708538	1.23021	0.958269	-0.132578	-0.039554	-0.481972	0.209727	-0.0528355	0	0	-0.0113686	-0.451908	-0.237721	0.712825	-0.0543381	0	0	-0.37491	0.0644889	-0.00793619	0.369933	-0.608431	0.29261	1.9377	1.5708	0	0	0.426981	-0.293685	0.102818	1.37762	1.5708	0	0
10	-2.68474	1.34929	-1.7776	0.707635	1.22699	0.958232	-0.131558	-0.0401983	-0.482385	0.205636	-0.056804	0	0	-0.0120594	-0.441776	-0.243206	0.733489	-0.0394978	0	0	-0.375732	0.0626434	-0.0100431	0.368698	-0.608317	0.288519	1.93658	1.5708	0	0	0.428785	-0.289423	0.100301	1.37855	1.5708	0	0
10.01	-2.68559	1.34942	-1.77523	0.706719	1.22372	0.958194	-0.129317	-0.0411596	-0.48283	0.202975	-0.060583	0	0	-0.0129451	-0.431057	-0.249839	0.752369	-0.0302854	0	0	-0.376118	0.0609938	-0.0111509	0.366898	-0.608152	0.283447	1.93525	1.5708	0	0	0.432773	-0.289033	0.10495	1.37752	1.5708	0	0
10.02	-2.68045	1.34769	-1.77914	0.706055	1.22024	0.958501	-0.127685	-0.0443377	-0.483144	0.201988	-0.0642097	0	0	-0.0192093	-0.412076	-0.247427	0.762324	-0.0224687	0	0	-0.379115	0.0568887	-0.0128884	0.3656	-0.606252	0.277953	1.933	1.5708	0	0	0.435488	-0.283152	0.0986054	1.37669	1.5708	0	0
10.03	-2.68368	1.34861	-1.77427	0.705045	1.21672	0.958453	-0.122576	-0.0460578	-0.484326	0.203513	-0.0678767	0	0	-0.0193574	-0.400478	-0.25283	0.779126	-0.00949633	0	0	-0.379021	0.0561836	-0.0134612	0.363477	-0.606309	0.271841	1.93128	1.5708	0	0	0.442021	-0.286735	0.110865	1.37414	1.5708	0	0
10.04	-2.68954	1.34906	-1.76686	0.704065	1.21314	0.95843	-0.117915	-0.0472827	-0.485015	0.205184	-0.0727998	0	0	-0.0201775	-0.388851	-0.257728	0.794669	0.00491154	0	0	-0.379965	0.0557859	-0.014315	0.362499	-0.606517	0.266634	1.9293	1.5708	0	0	0.446066	-0.283428	0.111816	1.37349	1.5708	0	0
10.05	-2.69586	1.34974	-1.75921	0.703057	1.20953	0.958342	-0.112265	-0.0487922	-0.486879	0.207971	-0.0768051	0	0	-0.0210036	-0.376966	-0.262814	0.808305	0.0162534	0	0	-0.38076	0.055457	-0.0151823	0.361826	-0.606805	0.261794	1.92728	1.5708	0	0	0.448579	-0.276062	0.106268	1.37344	1.5708	0	0
